grf
version=1
nRows=10
nColumns=46
inDegrees=no
endheader
time	ground_force_1_vx	ground_force_1_vy	ground_force_1_vz	ground_force_1_px	ground_force_1_py	ground_force_1_pz	ground_moment_1_mx	ground_moment_1_my	ground_moment_1_mz	ground_force_2_vx	ground_force_2_vy	ground_force_2_vz	ground_force_2_px	ground_force_2_py	ground_force_2_pz	ground_moment_2_mx	ground_moment_2_my	ground_moment_2_mz	ground_force_3_vx	ground_force_3_vy	ground_force_3_vz	ground_force_3_px	ground_force_3_py	ground_force_3_pz	ground_moment_3_mx	ground_moment_3_my	ground_moment_3_mz	ground_force_4_vx	ground_force_4_vy	ground_force_4_vz	ground_force_4_px	ground_force_4_py	ground_force_4_pz	ground_moment_4_mx	ground_moment_4_my	ground_moment_4_mz	ground_force_5_vx	ground_force_5_vy	ground_force_5_vz	ground_force_5_px	ground_force_5_py	ground_force_5_pz	ground_moment_5_mx	ground_moment_5_my	ground_moment_5_mz
      0.90000000	      0.00000000	     -0.00000000	      0.00000000	      0.00000000	      0.00000000	      0.00000000	      0.00000000	      0.00000000	      0.00000000	      0.00000000	     -0.00000000	      0.00000000	      0.00000000	      0.00000000	      0.00000000	      0.00000000	      0.00000000	      0.00000000	     -3.48051930	      7.90369839	   -378.42996216	     98.24006565	   -564.51621852	      0.00000000	      0.00000000	      0.00000000	    408.13956516	     45.39991459	     30.23402856	   -297.32467651	    109.16622468	   -657.66399329	      0.00000000	      0.00000000	     -0.00000000	   -827.33277054	      0.00000000	     -0.00000000	      0.00000000	      0.00000000	      0.00000000	      0.00000000	      0.00000000	      0.00000000	      0.00000000
      0.91000000	      0.00000000	     -0.00000000	      0.00000000	      0.00000000	      0.00000000	      0.00000000	      0.00000000	      0.00000000	      0.00000000	      0.00000000	     -0.00000000	      0.00000000	      0.00000000	      0.00000000	      0.00000000	      0.00000000	      0.00000000	      0.00000000	     -8.46757885	      0.32353694	   -366.77990723	     98.43873110	   -565.63470401	      0.00000000	      0.00000000	      0.00000000	    514.19716493	     51.20671594	     33.60015469	   -315.65051270	    107.77076281	   -655.34896780	      0.00000000	      0.00000000	     -0.00000000	   -201.76024268	      0.00000000	     -0.00000000	      0.00000000	      0.00000000	      0.00000000	      0.00000000	      0.00000000	      0.00000000	      0.00000000
      0.92000000	      0.00000000	     -0.00000000	      0.00000000	      0.00000000	      0.00000000	      0.00000000	      0.00000000	      0.00000000	      0.00000000	      0.00000000	     -0.00000000	      0.00000000	      0.00000000	      0.00000000	      0.00000000	      0.00000000	      0.00000000	      0.00000000	    -13.45463641	     -6.61313849	   -354.81542969	     98.84054010	   -568.87140263	      0.00000000	     -0.00000000	      0.00000000	    793.41039760	     55.88158223	     37.28530031	   -334.93127441	    108.11204862	   -656.81998347	      0.00000000	      0.00000000	     -0.00000000	   -173.09948852	      0.00000000	     -0.00000000	      0.00000000	      0.00000000	      0.00000000	      0.00000000	      0.00000000	      0.00000000	      0.00000000
      0.93000000	      0.00000000	     -0.00000000	      0.00000000	      0.00000000	      0.00000000	      0.00000000	      0.00000000	      0.00000000	      0.00000000	      0.00000000	     -0.00000000	      0.00000000	      0.00000000	      0.00000000	      0.00000000	      0.00000000	      0.00000000	      0.00000000	    -18.28082249	    -13.70991678	   -347.25857544	     98.43068382	   -572.52893978	      0.00000000	      0.00000000	      0.00000000	    893.04214910	     60.55645208	     39.36408836	   -352.61627197	    106.56643105	   -656.50630701	      0.00000000	      0.00000000	      0.00000000	     28.57763071	      0.00000000	     -0.00000000	      0.00000000	      0.00000000	      0.00000000	      0.00000000	      0.00000000	      0.00000000	      0.00000000
      0.94000000	      0.00000000	     -0.00000000	      0.00000000	      0.00000000	      0.00000000	      0.00000000	      0.00000000	      0.00000000	      0.00000000	      0.00000000	     -0.00000000	      0.00000000	      0.00000000	      0.00000000	      0.00000000	      0.00000000	      0.00000000	      0.00000000	    -22.78526169	    -20.32194246	   -344.12289429	    100.34165500	   -568.53470877	      0.00000000	      0.00000000	      0.00000000	   1145.43397222	     64.90923920	     39.99194871	   -369.96591187	    107.07138765	   -658.02438720	      0.00000000	      0.00000000	     -0.00000000	   -178.17593351	      0.00000000	     -0.00000000	      0.00000000	      0.00000000	      0.00000000	      0.00000000	      0.00000000	      0.00000000	      0.00000000
      0.95000000	      0.00000000	     -0.00000000	      0.00000000	      0.00000000	      0.00000000	      0.00000000	      0.00000000	      0.00000000	      0.00000000	      0.00000000	     -0.00000000	      0.00000000	      0.00000000	      0.00000000	      0.00000000	      0.00000000	      0.00000000	      0.00000000	    -27.93319453	    -26.93499802	   -340.97412109	     99.32875734	   -572.32612154	      0.00000000	      0.00000000	      0.00000000	   1579.83243993	     69.91236734	     40.61980516	   -390.52221680	    108.41339065	   -661.84775497	      0.00000000	      0.00000000	     -0.00000000	   -294.49388736	      0.00000000	     -0.00000000	      0.00000000	      0.00000000	      0.00000000	      0.00000000	      0.00000000	      0.00000000	      0.00000000
      0.96000000	      0.00000000	     -0.00000000	      0.00000000	      0.00000000	      0.00000000	      0.00000000	      0.00000000	      0.00000000	      0.00000000	      0.00000000	     -0.00000000	      0.00000000	      0.00000000	      0.00000000	      0.00000000	      0.00000000	      0.00000000	      0.00000000	    -30.66803377	    -33.22375120	   -338.77282715	     99.95850776	   -571.36980099	      0.00000000	      0.00000000	      0.00000000	   1669.99273744	     74.27133038	     40.76504528	   -408.52310181	    107.99834798	   -660.87422175	      0.00000000	      0.00000000	     -0.00000000	    -82.26114888	      0.00000000	     -0.00000000	      0.00000000	      0.00000000	      0.00000000	      0.00000000	      0.00000000	      0.00000000	      0.00000000
      0.97000000	      0.00000000	     -0.00000000	      0.00000000	      0.00000000	      0.00000000	      0.00000000	      0.00000000	      0.00000000	      0.00000000	      0.00000000	     -0.00000000	      0.00000000	      0.00000000	      0.00000000	      0.00000000	      0.00000000	      0.00000000	      0.00000000	    -33.24199760	    -38.70618040	   -335.93838501	     99.23906994	   -572.67703700	      0.00000000	      0.00000000	      0.00000000	   1771.09143570	     78.14870299	     39.94605207	   -426.83981323	    107.75403894	   -661.49589653	      0.00000000	      0.00000000	      0.00000000	     31.00637360	      0.00000000	     -0.00000000	      0.00000000	      0.00000000	      0.00000000	      0.00000000	      0.00000000	      0.00000000	      0.00000000
      0.98000000	      0.00000000	     -0.00000000	      0.00000000	      0.00000000	      0.00000000	      0.00000000	      0.00000000	      0.00000000	      0.00000000	      0.00000000	     -0.00000000	      0.00000000	      0.00000000	      0.00000000	      0.00000000	      0.00000000	      0.00000000	      0.00000000	    -35.17247557	    -45.64148672	   -332.47924805	     99.73453410	   -573.85848037	      0.00000000	      0.00000000	      0.00000000	   1655.68643477	     83.47546996	     39.92769493	   -445.16662598	    107.03932452	   -661.50855335	      0.00000000	      0.00000000	      0.00000000	    192.99941092	      0.00000000	     -0.00000000	      0.00000000	      0.00000000	      0.00000000	      0.00000000	      0.00000000	      0.00000000	      0.00000000
      0.99000000	      0.00000000	     -0.00000000	      0.00000000	      0.00000000	      0.00000000	      0.00000000	      0.00000000	      0.00000000	      0.00000000	      0.00000000	     -0.00000000	      0.00000000	      0.00000000	      0.00000000	      0.00000000	      0.00000000	      0.00000000	      0.00000000	    -37.58556995	    -52.41260840	   -329.32824707	     98.70901192	   -575.59966270	      0.00000000	      0.00000000	      0.00000000	   1810.35058537	     87.35439110	     37.50132563	   -468.92724609	    108.59685889	   -666.18745751	      0.00000000	      0.00000000	     -0.00000000	    -94.24655983	      0.00000000	     -0.00000000	      0.00000000	      0.00000000	      0.00000000	      0.00000000	      0.00000000	      0.00000000	      0.00000000
